<?xml version="1.0" standalone="no"?>
<!DOCTYPE svg PUBLIC "-//W3C//DTD SVG 20010904//EN"
 "http://www.w3.org/TR/2001/REC-SVG-20010904/DTD/svg10.dtd">
<svg version="1.0" xmlns="http://www.w3.org/2000/svg"
 width="700.000000pt" height="700.000000pt" viewBox="0 0 700.000000 700.000000"
 preserveAspectRatio="xMidYMid meet">
<metadata>
Created by potrace 1.11, written by Peter Selinger 2001-2013
</metadata>
<g transform="translate(0.000000,700.000000) scale(0.100000,-0.100000)"
fill="#000000" stroke="none">
<path d="M1070 4463 l0 -348 -27 34 c-14 18 -41 40 -59 47 -41 17 -270 19
-329 3 -52 -15 -119 -82 -134 -134 -14 -52 -15 -1204 -1 -1256 16 -58 51 -101
105 -128 46 -24 59 -26 190 -26 158 0 198 12 234 68 l21 32 0 -52 0 -53 110 0
110 0 -2 1078 -3 1077 -107 3 -108 3 0 -348z m-33 -467 l28 -24 3 -511 c2
-349 -1 -524 -8 -552 -16 -59 -53 -72 -192 -67 -70 2 -112 8 -120 16 -10 10
-14 131 -16 564 -2 483 -1 554 13 574 15 23 20 24 140 24 117 0 126 -1 152
-24z"/>
<path d="M1577 4804 c-4 -4 -7 -63 -7 -131 l0 -123 120 0 121 0 -3 128 -3 127
-111 3 c-60 1 -113 -1 -117 -4z"/>
<path d="M1580 3430 l0 -780 110 0 110 0 0 780 0 780 -110 0 -110 0 0 -780z"/>
<path d="M2218 4194 c-55 -17 -111 -70 -130 -123 -10 -28 -13 -171 -13 -636 0
-670 -1 -661 70 -723 53 -47 95 -57 245 -57 147 0 178 9 219 61 l21 27 0 -157
c0 -213 24 -196 -275 -196 l-235 0 0 -96 0 -95 288 3 c272 3 289 4 327 25 53
28 81 60 100 112 13 38 15 162 15 957 l0 914 -110 0 -110 0 0 -45 0 -46 -31
35 c-17 20 -47 40 -67 46 -55 15 -258 11 -314 -6z m365 -185 c14 -6 30 -22 36
-36 8 -16 11 -185 11 -548 l0 -524 -24 -28 c-24 -28 -25 -28 -150 -28 -107 0
-128 3 -143 18 -17 17 -18 53 -18 568 l0 551 24 19 c20 16 40 19 132 19 59 0
119 -5 132 -11z"/>
<path d="M3276 4198 c-51 -14 -118 -81 -134 -134 -15 -53 -17 -1199 -2 -1255
16 -58 51 -101 105 -128 46 -24 59 -26 190 -26 158 0 198 12 234 68 l21 32 0
-52 0 -53 110 0 110 0 0 780 0 780 -110 0 -110 0 0 -47 0 -48 -25 31 c-40 51
-88 64 -228 63 -67 -1 -140 -6 -161 -11z m379 -202 c14 -14 26 -41 30 -67 3
-24 5 -264 3 -534 -2 -367 -6 -495 -15 -512 -20 -34 -73 -46 -190 -41 -89 3
-107 6 -119 23 -12 16 -14 113 -14 567 0 535 0 548 20 568 18 18 33 20 140 20
114 0 122 -1 145 -24z"/>
<path d="M4230 3205 l0 -1005 110 0 110 0 2 632 3 632 115 -357 115 -357 115
0 115 0 117 348 116 347 1 -622 1 -623 115 0 115 0 0 1005 0 1005 -113 0 -113
0 -175 -545 c-96 -300 -176 -545 -179 -545 -4 0 -152 457 -317 983 l-34 107
-110 0 -109 0 0 -1005z"/>
<path d="M5826 4198 c-52 -14 -121 -82 -135 -133 -16 -57 -15 -1219 0 -1266
34 -102 104 -141 262 -147 143 -6 206 8 246 53 l30 34 3 -42 3 -42 110 0 110
0 3 778 2 777 -115 0 -115 0 0 -42 0 -43 -23 27 c-38 47 -82 58 -219 57 -68
-1 -140 -6 -162 -11z m385 -207 c18 -22 19 -47 19 -560 0 -523 -1 -538 -20
-559 -26 -28 -68 -35 -185 -30 -82 2 -99 6 -111 22 -12 17 -14 111 -14 568 0
542 0 548 21 569 19 19 30 20 146 17 117 -3 126 -4 144 -27z"/>
</g>
</svg>
