<svg version="1.1" xmlns="http://www.w3.org/2000/svg" xmlns:xlink="http://www.w3.org/1999/xlink" x="0px" y="0px" viewBox="0 0 1000 1000" enable-background="new 0 0 1000 1000" xml:space="preserve">
    <path fill='#212121' d="M10,512c0,44.4,4.1,84.6,12.5,120.5c8.3,35.9,19.8,67.2,34.5,93.7c14.7,26.5,33.4,49.8,56.1,70c22.7,20.1,47.3,36.6,73.8,49.4c26.5,12.8,56.8,23.2,90.8,31.1c34,8,68.8,13.6,104.2,16.8c35.5,3.2,74.4,4.8,116.9,4.8c42.8,0,82-1.6,117.4-4.8c35.4-3.2,70.3-8.8,104.5-16.8c34.2-8,64.6-18.4,91.3-31.1c26.7-12.8,51.4-29.2,74.3-49.4c22.8-20.1,41.7-43.5,56.5-70c14.9-26.5,26.4-57.7,34.7-93.7c8.3-35.9,12.5-76.1,12.5-120.5c0-79.2-26.5-147.8-79.5-205.6c2.9-7.7,5.5-16.4,7.9-26.1s4.6-23.6,6.7-41.7c2.1-18.1,1.3-38.9-2.4-62.5c-3.7-23.6-10.5-47.8-20.4-72.4l-7.2-1.4c-5.1-1-13.5-0.7-25.2,0.7c-11.7,1.4-25.2,4.3-40.7,8.6c-15.5,4.3-35.5,12.6-59.9,24.9c-24.4,12.3-50.2,27.7-77.4,46.2c-46.6-12.8-110.7-19.2-192.2-19.2c-81.2,0-145,6.4-191.7,19.2c-27.1-18.5-53.1-33.9-77.9-46.2c-24.8-12.3-44.5-20.6-59.2-24.9c-14.7-4.3-28.4-7.1-41.2-8.4c-12.8-1.3-20.9-1.7-24.2-1.2c-3.3,0.5-6,1-7.9,1.7c-9.9,24.6-16.7,48.7-20.4,72.4c-3.7,23.6-4.5,44.5-2.4,62.5c2.1,18.1,4.3,31.9,6.7,41.7c2.4,9.7,5,18.5,7.9,26.1C36.5,364.3,10,432.8,10,512L10,512z M130.3,632.3c0-46,20.9-88.2,62.8-126.5c12.5-11.5,27-20.2,43.6-26.1c16.6-5.9,35.4-9.3,56.3-10.1c20.9-0.8,41-0.6,60.1,0.5s42.8,2.6,70.9,4.5s52.4,2.9,72.8,2.9c20.4,0,44.7-1,72.8-2.9c28.1-1.9,51.8-3.4,70.9-4.5c19.2-1.1,39.2-1.3,60.1-0.5c20.9,0.8,39.7,4.1,56.3,10.1c16.6,5.9,31.1,14.6,43.6,26.1c41.8,37.7,62.8,79.9,62.8,126.5c0,27.5-3.4,51.8-10.3,73.1c-6.9,21.3-15.7,39.1-26.4,53.4c-10.7,14.4-25.6,26.6-44.6,36.7c-19,10.1-37.5,17.8-55.6,23.2c-18.1,5.4-41.2,9.7-69.5,12.7c-28.3,3-53.5,4.9-75.7,5.5c-22.2,0.6-50.4,1-84.6,1c-34.2,0-62.4-0.3-84.6-1c-22.2-0.6-47.4-2.5-75.7-5.5c-28.3-3-51.4-7.3-69.5-12.7c-18.1-5.4-36.6-13.2-55.6-23.2s-33.9-22.3-44.6-36.7c-10.7-14.4-19.5-32.2-26.4-53.4C133.8,684.2,130.3,659.8,130.3,632.3L130.3,632.3z M622.5,622.7c0-50.7,27.4-91.9,61.3-91.9c33.8,0,61.3,41.1,61.3,91.9c0,50.7-27.4,91.9-61.3,91.9C649.9,714.5,622.5,673.4,622.5,622.7z M255,622.7c0-50.7,27.4-91.9,61.2-91.9c33.8,0,61.3,41.1,61.3,91.9c0,50.7-27.4,91.9-61.3,91.9C282.4,714.5,255,673.4,255,622.7z" />
</svg>
