<?xml version="1.0" encoding="utf-8"?><!-- Uploaded to: SVG Repo, www.svgrepo.com, Generator: SVG Repo Mixer Tools -->
<svg fill="#000000" width="800px" height="800px" viewBox="-6.25 0 31.922 31.922" xmlns="http://www.w3.org/2000/svg">
  <path id="Path_19" data-name="Path 19" d="M278.368,135.565c-.32-2.664-1.146-7.462-1.445-9.162a2.163,2.163,0,0,0-.458-.993l-.005-.006a9.211,9.211,0,0,0-4.7-2.69l1.674-1.674a7.765,7.765,0,0,1,2.075,1.4.779.779,0,0,0,1.077-1.125,11.223,11.223,0,0,0-7.646-2.834h-.273a11.223,11.223,0,0,0-7.646,2.834.779.779,0,0,0-.022,1.1.778.778,0,0,0,1.1.023,7.782,7.782,0,0,1,2.075-1.4l1.675,1.674a9.211,9.211,0,0,0-4.7,2.69l-.005.006a2.152,2.152,0,0,0-.459.993c-.3,1.7-1.125,6.5-1.444,9.162a27.385,27.385,0,0,0,.512,8.844,16.951,16.951,0,0,1,.581,2.385c.021.153.937.295,2.42.395l-1.942,2.632v.582h2.519l.34-.458,1.941-2.628c.969.026,2.033.041,3.156.041h.076c1.123,0,2.186-.015,3.156-.041l1.939,2.628.34.458h2.52v-.582l-1.943-2.632c1.486-.1,2.4-.242,2.421-.395a16.954,16.954,0,0,1,.581-2.385A27.378,27.378,0,0,0,278.368,135.565Zm-12.587-15.121a11.367,11.367,0,0,1,2.988-.4h.067a11.343,11.343,0,0,1,2.987.4l-1.954,1.958c-.338-.029-.681-.045-1.028-.046h-.076c-.348,0-.691.017-1.029.046Zm-1.826,5.655.233-1.05a.308.308,0,0,1,.251-.22s2.39-.2,4.364-.2,4.361.2,4.361.2a.306.306,0,0,1,.253.22l.233,1.05a.145.145,0,0,1-.161.185s-2.713-.207-4.686-.207-4.688.207-4.688.207A.146.146,0,0,1,263.955,126.1Zm-1.82,19.983a.989.989,0,1,1,.989-.989A.99.99,0,0,1,262.135,146.082Zm3.179-3.069h0l-3.13-.294a.7.7,0,0,1-.7-.7l-.19-1.614a.043.043,0,0,1,0-.022c-.01-.14.069-.14.214-.14h1.635c.06,0,.125,0,.156.09a.036.036,0,0,1,.005.019,1.106,1.106,0,0,0,1.051.761,1.047,1.047,0,0,0,.268-.034c.127-.03.221-.082.269.047l0,.009.579,1.711v0C265.509,142.958,265.426,143.024,265.314,143.013Zm6.978,0h0c-.113.011-.2-.055-.16-.161v0l.578-1.711.005-.009c.049-.129.142-.077.268-.047a1.053,1.053,0,0,0,.271.034,1.106,1.106,0,0,0,1.049-.761.035.035,0,0,1,.005-.019c.031-.09.1-.09.156-.09H276.1c.144,0,.223,0,.212.14a.043.043,0,0,1,0,.022l-.19,1.614a.7.7,0,0,1-.7.7Zm3.179,3.069a.989.989,0,1,1,.99-.989A.992.992,0,0,1,275.471,146.082Zm.369-9.361-.077-.013a62.639,62.639,0,0,0-13.922,0l-.075.013c-1.056.18-.865-.751-.819-1.1h0l.748-6.3a1.14,1.14,0,0,1,1.141-1.2c.865-.061,3.825-.264,5.963-.266s5.1.2,5.964.266a1.142,1.142,0,0,1,1.14,1.2l.749,6.3h0C276.7,135.97,276.895,136.9,275.84,136.721Z" transform="translate(-259.089 -118.481)"/>
</svg>